# 3ds Max Wavefront OBJ Exporter v0.99 - (c)2007 guruware
# File Created: 19.11.2024 22:08:32

mtllib head.mtl

#
# object Box001
#

v  -0.5000 3.0772 0.5000
v  -0.5000 3.0772 -0.5000
v  0.5000 3.0772 -0.5000
v  0.5000 3.0772 0.5000
v  -0.5000 4.0772 0.5000
v  0.5000 4.0772 0.5000
v  0.5000 4.0772 -0.5000
v  -0.5000 4.0772 -0.5000
# 8 vertices

vn 0.0000 -1.0000 -0.0000
vn 0.0000 1.0000 -0.0000
vn 0.0000 0.0000 1.0000
vn 1.0000 0.0000 -0.0000
vn 0.0000 0.0000 -1.0000
vn -1.0000 0.0000 -0.0000
# 6 vertex normals

vt 1.0000 0.0000 0.0000
vt 1.0000 1.0000 0.0000
vt 0.0000 1.0000 0.0000
vt 0.0000 0.0000 0.0000
# 4 texture coords

o Box001
g Box001
usemtl head_default
s 2
f 1/1/1 2/2/1 3/3/1 
f 3/3/1 4/4/1 1/1/1 
s 4
f 5/4/2 6/1/2 7/2/2 
f 7/2/2 8/3/2 5/4/2 
s 8
f 1/4/3 4/1/3 6/2/3 
f 6/2/3 5/3/3 1/4/3 
s 16
f 4/4/4 3/1/4 7/2/4 
f 7/2/4 6/3/4 4/4/4 
s 32
f 3/4/5 2/1/5 8/2/5 
f 8/2/5 7/3/5 3/4/5 
s 64
f 2/4/6 1/1/6 5/2/6 
f 5/2/6 8/3/6 2/4/6 
# 12 faces

#
# object Box002
#

v  -0.1048 3.1569 0.6568
v  0.0864 3.1569 0.6568
v  0.0864 3.5080 0.6568
v  -0.1048 3.5080 0.6568
v  -0.1048 3.1569 0.4923
v  0.0864 3.1569 0.4923
v  0.0864 3.5080 0.4923
v  -0.1048 3.5080 0.4923
# 8 vertices

vn 0.0000 -0.0000 1.0000
vn 0.0000 -1.0000 -0.0000
vn 1.0000 0.0000 -0.0000
vn 0.0000 1.0000 0.0000
vn -1.0000 0.0000 -0.0000
# 5 vertex normals

vt 0.0000 0.0000 0.0000
vt 1.0000 0.0000 0.0000
vt 1.0000 1.0000 0.0000
vt 0.0000 1.0000 0.0000
# 4 texture coords

o Box002
g Box002
usemtl wire_006135058
s 4
f 9/5/7 10/6/7 11/7/7 
f 11/7/7 12/8/7 9/5/7 
s 8
f 13/5/8 14/6/8 10/7/8 
f 10/7/8 9/8/8 13/5/8 
s 16
f 14/5/9 15/6/9 11/7/9 
f 11/7/9 10/8/9 14/5/9 
s 32
f 15/5/10 16/6/10 12/7/10 
f 12/7/10 11/8/10 15/5/10 
s 64
f 16/5/11 13/6/11 9/7/11 
f 9/7/11 12/8/11 16/5/11 
# 10 faces

