# 3ds Max Wavefront OBJ Exporter v0.99 - (c)2007 guruware
# File Created: 14.11.2024 15:56:37

#
# object Box004
#

v  -0.5092 2.1264 0.1604
v  -0.5092 2.1264 -0.1670
v  -0.7580 2.1264 -0.1670
v  -0.7580 2.1264 0.1604
v  -0.5092 3.0692 0.1604
v  -0.7580 3.0692 0.1604
v  -0.7580 3.0692 -0.1670
v  -0.5092 3.0692 -0.1670
# 8 vertices

vn 0.0000 -1.0000 -0.0000
vn 0.0000 1.0000 -0.0000
vn 0.0000 0.0000 1.0000
vn -1.0000 0.0000 -0.0000
vn 0.0000 0.0000 -1.0000
vn 1.0000 0.0000 -0.0000
# 6 vertex normals

vt 1.0000 0.0000 0.0000
vt 1.0000 1.0000 0.0000
vt 0.0000 1.0000 0.0000
vt 0.0000 0.0000 0.0000
# 4 texture coords

o Box004
g Box004
s 2
f 3/3/1 2/2/1 1/1/1 
f 1/1/1 4/4/1 3/3/1 
s 4
f 7/2/2 6/1/2 5/4/2 
f 5/4/2 8/3/2 7/2/2 
s 8
f 6/2/3 4/1/3 1/4/3 
f 1/4/3 5/3/3 6/2/3 
s 16
f 7/2/4 3/1/4 4/4/4 
f 4/4/4 6/3/4 7/2/4 
s 32
f 8/2/5 2/1/5 3/4/5 
f 3/4/5 7/3/5 8/2/5 
s 64
f 5/2/6 1/1/6 2/4/6 
f 2/4/6 8/3/6 5/2/6 
# 12 faces

