# 3ds Max Wavefront OBJ Exporter v0.99 - (c)2007 guruware
# File Created: 25.11.2024 21:30:40

mtllib pyramid.mtl

#
# object Pyramid001
#

v  0.000000 2.000000 -0.000000
v  -0.500000 0.000000 0.500000
v  0.500000 0.000000 0.500000
v  0.500000 0.000000 -0.500000
v  -0.500000 0.000000 -0.500000
v  0.000000 0.000000 -0.000000
# 6 vertices

vn 0.000000 0.242536 0.970142
vn 0.970142 0.242536 -0.000000
vn 0.000000 0.242536 -0.970142
vn -0.970142 0.242536 -0.000000
vn 0.000000 -1.000000 -0.000000
# 5 vertex normals

vt 0.500000 1.000000 0.000000
vt 0.000000 0.000000 0.000000
vt 1.000000 0.000000 0.000000
vt 0.000000 1.000000 0.000000
vt 0.500000 0.500000 0.000000
vt 1.000000 1.000000 0.000000
# 6 texture coords

o Pyramid001
g Pyramid001
usemtl wire_108008136
s 4
f 1/1/1 2/2/1 3/3/1 
s 2
f 1/1/2 3/2/2 4/3/2 
s 16
f 1/1/3 4/2/3 5/3/3 
s 32
f 1/1/4 5/2/4 2/3/4 
s 8
f 2/4/5 6/5/5 3/6/5 
f 3/6/5 6/5/5 4/3/5 
f 4/3/5 6/5/5 5/2/5 
f 5/2/5 6/5/5 2/4/5 
# 8 faces

